# xmcd
#
# Track frame offsets:
#	150
#	13538
#	23551
#	32071
#	43554
#	54609
#	65394
#	78542
#	91330
#	103578
#
# Disc length: 1516 seconds
#
# Revision: 1
# Processed by: cddbd v1.5.2PL0 Copyright (c) Steve Scherf et al.
# Submitted via: audiograbber 1.83.01
#
DISCID=7205ea0a
DTITLE=Cowboy Copas - Filipino Baby
DYEAR=1970
DGENRE=Country
TTITLE0=Filipino Baby
TTITLE1=Flat Top
TTITLE2=Thinkin' Tonight
TTITLE3=My Autobiography
TTITLE4=Louisian
TTITLE5=Sunny Tennessee
TTITLE6=Don't Let Your Deal Go Down
TTITLE7=Signed, Sealed Then Forgotten
TTITLE8=My True Confession
TTITLE9=Sal
EXTD=
EXTT0=
EXTT1=
EXTT2=
EXTT3=
EXTT4=
EXTT5=
EXTT6=
EXTT7=
EXTT8=
EXTT9=
PLAYORDER=
